<svg width="54" height="54" viewBox="0 0 54 54" fill="none" xmlns="http://www.w3.org/2000/svg">
<path d="M47.039 40.7109H42.8203V36.4922C42.8203 36.2601 42.6305 36.0703 42.3984 36.0703H39.8672C39.6351 36.0703 39.4453 36.2601 39.4453 36.4922V40.7109H35.2265C34.9945 40.7109 34.8047 40.9008 34.8047 41.1328V43.664C34.8047 43.8961 34.9945 44.0859 35.2265 44.0859H39.4453V48.3047C39.4453 48.5367 39.6351 48.7265 39.8672 48.7265H42.3984C42.6305 48.7265 42.8203 48.5367 42.8203 48.3047V44.0859H47.039C47.2711 44.0859 47.4609 43.8961 47.4609 43.664V41.1328C47.4609 40.9008 47.2711 40.7109 47.039 40.7109ZM19.6963 26.2828C19.6488 25.824 19.6224 25.3599 19.6224 24.8906C19.6224 24.0521 19.7015 23.2348 19.8492 22.4385C19.8861 22.2486 19.7859 22.0535 19.6119 21.9744C18.8947 21.6527 18.2355 21.2098 17.666 20.6508C16.9949 20.0001 16.4668 19.2166 16.1154 18.3504C15.764 17.4842 15.5971 16.5543 15.6252 15.6199C15.6726 13.9271 16.3529 12.3187 17.5394 11.1058C18.842 9.77167 20.5928 9.04393 22.4543 9.06502C24.1365 9.08085 25.7607 9.72948 26.9894 10.8791C27.406 11.2693 27.7646 11.7017 28.0652 12.1658C28.1707 12.3293 28.3764 12.3978 28.5556 12.3346C29.4838 12.0129 30.4646 11.7861 31.4719 11.6807C31.7672 11.649 31.9359 11.3326 31.8041 11.0689C30.0902 7.67811 26.5887 5.3367 22.5387 5.27342C16.6957 5.18378 11.823 9.97733 11.823 15.8203C11.823 19.132 13.3471 22.0851 15.7359 24.0205C14.059 24.7957 12.5139 25.8662 11.1744 27.2057C8.28456 30.0902 6.64979 33.8976 6.54432 37.9635C6.54291 38.0197 6.55279 38.0757 6.57336 38.1281C6.59393 38.1806 6.62478 38.2283 6.66409 38.2686C6.70341 38.3089 6.75039 38.3409 6.80228 38.3628C6.85416 38.3846 6.9099 38.3959 6.9662 38.3959H9.92459C10.1514 38.3959 10.3412 38.2166 10.3465 37.9898C10.4467 34.9312 11.6859 32.0678 13.8639 29.8951C15.4142 28.3447 17.3127 27.2689 19.3851 26.7469C19.5855 26.6889 19.7226 26.4937 19.6963 26.2828ZM43.4531 24.8906C43.4531 19.1215 38.8178 14.4334 33.0697 14.3437C27.2267 14.2541 22.3594 19.0476 22.3594 24.8906C22.3594 28.2023 23.8887 31.1555 26.2723 33.0908C24.5779 33.8762 23.0355 34.9544 21.716 36.276C18.8262 39.1605 17.1914 42.968 17.0859 47.0285C17.0845 47.0848 17.0944 47.1408 17.115 47.1932C17.1355 47.2456 17.1664 47.2934 17.2057 47.3337C17.245 47.374 17.292 47.406 17.3439 47.4278C17.3958 47.4497 17.4515 47.4609 17.5078 47.4609H20.4609C20.6877 47.4609 20.8775 47.2816 20.8828 47.0549C20.983 43.9963 22.2223 41.1328 24.4002 38.9601C26.673 36.6873 29.6894 35.4375 32.9062 35.4375C38.7281 35.4375 43.4531 30.7178 43.4531 24.8906ZM37.6787 29.6631C36.4025 30.9392 34.7097 31.6406 32.9062 31.6406C31.1027 31.6406 29.4099 30.9392 28.1338 29.6631C27.4969 29.0296 26.9938 28.2747 26.6541 27.4431C26.3144 26.6115 26.1451 25.7203 26.1562 24.8221C26.1721 23.0924 26.8629 21.4207 28.0705 20.1814C29.3361 18.8842 31.0289 18.1617 32.8377 18.1406C34.6254 18.1248 36.3603 18.8209 37.6365 20.0707C38.9443 21.3521 39.6615 23.066 39.6615 24.8906C39.6562 26.6941 38.9549 28.3869 37.6787 29.6631Z" fill="white"/>
</svg>
