<svg width="54" height="54" viewBox="0 0 54 54" fill="none" xmlns="http://www.w3.org/2000/svg">
<path d="M16.4583 31.1924C16.6217 31.3559 16.8907 31.3559 17.0542 31.1924L22.4225 25.824L26.9629 30.3697C27.1264 30.5332 27.3954 30.5332 27.5588 30.3697L39.4926 18.4254C39.6561 18.2619 39.6561 17.993 39.4926 17.8295L37.552 15.8889C37.3885 15.7254 37.1196 15.7254 36.9561 15.8889L27.2635 25.592L22.7231 21.0463C22.5596 20.8828 22.2907 20.8828 22.1272 21.0463L14.5176 28.6559C14.3542 28.8193 14.3542 29.0883 14.5176 29.2518L16.4583 31.1924Z" fill="white"/>
<path d="M47.6719 8.4375H28.8984V5.0625C28.8984 4.83047 28.7086 4.64062 28.4766 4.64062H25.5234C25.2914 4.64062 25.1016 4.83047 25.1016 5.0625V8.4375H6.32812C5.39473 8.4375 4.64062 9.1916 4.64062 10.125V37.5469C4.64062 38.4803 5.39473 39.2344 6.32812 39.2344H25.1227V40.9219L16.432 46.6225C16.2369 46.749 16.1842 47.0074 16.3107 47.2025L17.9086 49.6916V49.6969C18.0352 49.892 18.2988 49.9447 18.4939 49.8182L27 44.2389L35.5061 49.8182C35.7012 49.9447 35.9648 49.892 36.0914 49.6969V49.6916L37.6893 47.2025C37.8158 47.0074 37.7578 46.749 37.568 46.6225L28.8984 40.9377V39.2344H47.6719C48.6053 39.2344 49.3594 38.4803 49.3594 37.5469V10.125C49.3594 9.1916 48.6053 8.4375 47.6719 8.4375ZM45.5625 35.4375H8.4375V12.2344H45.5625V35.4375Z" fill="white"/>
</svg>
