<svg width="54" height="54" viewBox="0 0 54 54" fill="none" xmlns="http://www.w3.org/2000/svg">
<path d="M23.3244 35.7328L33.8396 27.4693C33.9099 27.4135 33.9667 27.3426 34.0057 27.2618C34.0448 27.181 34.065 27.0924 34.065 27.0026C34.065 26.9129 34.0448 26.8243 34.0057 26.7435C33.9667 26.6627 33.9099 26.5917 33.8396 26.5359L23.3244 18.2672C22.9342 17.9613 22.3594 18.2356 22.3594 18.7313V35.2635C22.3594 35.7592 22.9342 36.0387 23.3244 35.7328Z" fill="white"/>
<path d="M46.4062 5.90625H7.59375C6.66035 5.90625 5.90625 6.66035 5.90625 7.59375V46.4062C5.90625 47.3396 6.66035 48.0938 7.59375 48.0938H46.4062C47.3396 48.0938 48.0938 47.3396 48.0938 46.4062V7.59375C48.0938 6.66035 47.3396 5.90625 46.4062 5.90625ZM44.2969 44.2969H9.70312V9.70312H44.2969V44.2969Z" fill="white"/>
</svg>
