<svg width="54" height="54" viewBox="0 0 54 54" fill="none" xmlns="http://www.w3.org/2000/svg">
<path d="M50.4616 44.5658L47.2712 33.3281V8.85938C47.2712 7.92598 46.5171 7.17188 45.5837 7.17188H8.45866C7.52527 7.17188 6.77116 7.92598 6.77116 8.85938V33.3281L3.58074 44.5658C3.18523 45.668 3.99734 46.8281 5.16804 46.8281H48.8743C50.045 46.8281 50.8571 45.668 50.4616 44.5658ZM10.568 10.9688H43.4743V31.7988H10.568V10.9688ZM22.6073 43.0312L23.0344 41.0801H30.9604L31.3876 43.0312H22.6073ZM34.4198 43.0312L33.4126 38.4592C33.3704 38.2641 33.1964 38.127 33.0012 38.127H20.9989C20.7985 38.127 20.6298 38.2641 20.5876 38.4592L19.5803 43.0312H7.96296L10.1936 35.1738H43.8487L46.0794 43.0312H34.4198Z" fill="white"/>
</svg>
